<?xml version="1.0" encoding="UTF-8" standalone="no"?>
<svg width="640" height="480" xmlns="http://www.w3.org/2000/svg" xmlns:svg="http://www.w3.org/2000/svg">
  <!-- Created with SVG-edit - http://svg-edit.googlecode.com/ -->
  <defs>
    <filter height="200%" width="200%" y="-50%" x="-50%" id="svg_21_blur">
      <feGaussianBlur stdDeviation="4" in="SourceGraphic"/>
    </filter>
  </defs>
  <g>
    <title>Layer 1</title>
    <path transform="rotate(0.05950871482491493 306.8610534667343,230.9005279541056) " stroke="#3afc53" filter="url(#svg_21_blur)" id="svg_21" d="m495.008991,186.849872c-37.12231,97.90711 -6.51744,26.50956 -26.95206,74.81191c-20.43462,48.30236 -9.95331,18.1417 -10.15416,17.55661c-0.20085,-0.5851 -64.87722,27.925 -65.07805,27.3399c-0.20085,-0.58509 -36.58241,13.34373 -36.78326,12.75863c-0.20085,-0.5851 -29.50871,-0.02245 -30.21607,-0.02245c-0.70738,0 -44.56433,6.68308 -46.68644,6.07553c-2.12212,-0.60756 -36.07588,-2.43022 -36.27673,-3.01531c-0.20084,-0.5851 -32.33819,6.66063 -32.53903,6.07553c-0.20084,-0.58509 -56.38878,-1.23756 -56.58962,-1.82266c-0.20084,-0.58509 -28.09397,4.23042 -28.80134,4.83797c-0.70737,0.60756 -8.48844,10.93597 -8.68928,10.35087c-0.20084,-0.58509 -18.19079,13.95128 -20.3129,15.16638c-2.12211,1.21511 -22.63585,-8.50576 -22.83669,-9.09085c-0.20083,-0.58509 -68.46932,69.70115 -43.99844,31.31485c24.47088,-38.3863 30.05187,-46.52614 29.85104,-47.11124c-0.20083,-0.58509 -24.0775,27.98841 24.07821,-20.85354c48.15571,-48.84195 152.25782,-76.98504 152.05698,-77.57013c-0.20084,-0.58509 75.13637,1.06258 107.50218,-28.47662c32.36581,-29.53921 19.31794,-60.85621 20.0253,-60.85621c0.70738,0 -6.36632,-24.30215 -6.56717,-24.88723c-0.20085,-0.58509 0.90821,-13.38865 0.70737,-13.97374c-0.20084,-0.58509 -57.23103,-47.17457 29.58573,-30.85003c86.81677,16.32455 36.47288,4.74685 102.92026,26.45255c66.44738,21.70569 -31.55805,-14.12309 29.27222,15.22845c60.83027,29.35154 31.53471,12.23361 31.33387,11.64852c-0.20086,-0.58509 -13.23919,25.49478 -13.44003,24.90969c-0.20086,-0.58509 0.10118,-8.62577 -46.109,-18.16308c-46.21018,-9.53731 -10.42369,0.61058 -8.49193,31.31594c1.93177,30.70536 41.08157,134.63061 108.10275,90.6" stroke-width="5" fill="#00ff00"/>
  </g>
</svg>
