<?xml version="1.0" encoding="UTF-8" standalone="no"?>
<svg width="290" height="170" xmlns="http://www.w3.org/2000/svg">
  <!-- Created with SVG-edit - http://svg-edit.googlecode.com/ -->
  <defs>
    <filter id="svg_21_blur" x="-50%" y="-50%" width="200%" height="200%">
      <feGaussianBlur stdDeviation="4"/>
    </filter>
  </defs>
  <g>
    <title>background</title>
    <rect fill="none" id="canvas_background" height="172" width="292" y="-1" x="-1"/>
  </g>
  <g>
    <title>Layer 1</title>
    <path stroke="#3afc53" fill="#00ff00" stroke-width="5" d="m113.65928,75.33722c-8.74298,27.90938 -1.53498,7.55681 -6.3477,21.32586c-4.81272,13.76906 -2.34419,5.17147 -2.39149,5.00469c-0.0473,-0.16679 -15.27976,7.96029 -15.32706,7.7935c-0.04731,-0.16679 -8.61582,3.80376 -8.66312,3.63697c-0.04731,-0.16679 -6.94983,-0.0064 -7.11643,-0.0064c-0.1666,0 -10.4957,1.90508 -10.9955,1.73189c-0.4998,-0.17319 -8.49652,-0.69276 -8.54383,-0.85954c-0.0473,-0.16679 -7.61623,1.89868 -7.66353,1.73189c-0.0473,-0.16679 -13.28058,-0.35278 -13.32788,-0.51957c-0.0473,-0.16679 -6.61664,1.20592 -6.78324,1.37911c-0.1666,0.17319 -1.99918,3.11741 -2.04648,2.95061c-0.0473,-0.16678 -4.28426,3.97696 -4.78406,4.32333c-0.49979,0.34637 -5.33115,-2.42465 -5.37845,-2.59144c-0.0473,-0.16679 -16.12577,19.869 -10.36243,8.9266c5.76334,-10.94239 7.07776,-13.26273 7.03046,-13.42952c-0.0473,-0.16679 -5.67069,7.97837 5.67085,-5.94451c11.34154,-13.92288 35.85947,-21.94534 35.81217,-22.11212c-0.0473,-0.16679 17.69597,0.3029 25.31871,-8.11754c7.62273,-8.42044 4.54973,-17.34766 4.71632,-17.34766c0.1666,0 -1.49938,-6.92757 -1.54669,-7.09435c-0.04731,-0.16679 0.2139,-3.81656 0.1666,-3.98335c-0.0473,-0.16679 -13.47894,-13.44757 6.96797,-8.79411c20.44692,4.65347 8.59003,1.35314 24.23958,7.54056c15.64956,6.18742 -7.43249,-4.02592 6.89414,4.34102c14.32663,8.36694 7.42699,3.48731 7.37969,3.32052c-0.04731,-0.16679 -3.11807,7.26753 -3.16537,7.10075c-0.04731,-0.16679 0.02383,-2.45886 -10.8595,-5.17757c-10.88333,-2.71871 -2.45497,0.17405 -2,8.92692c0.45496,8.75286 9.67545,38.37777 25.46015,25.82641" id="svg_21" filter="url(#svg_21_blur)" transform="rotate(0.05950871482491493 69.34704589844578,87.89428710936474) "/>
    <text fill="#000000" stroke-width="0" stroke-linejoin="null" stroke-linecap="null" x="268.78712" y="137.22541" id="svg_25" font-size="24" font-family="Serif" text-anchor="middle" xml:space="preserve" transform="matrix(1.6489736183946462,0,0,1.7498019803312748,-227.83951420572532,-140.8584049921843) " stroke="#3afc53" font-weight="bold" font-style="italic">Homenvi</text>
  </g>
</svg>
